<svg xmlns="http://www.w3.org/2000/svg" version="1.1" xmlns:xlink="http://www.w3.org/1999/xlink" xmlns:svgjs="http://svgjs.com/svgjs" width="1440" height="560" preserveAspectRatio="none" viewBox="0 0 1440 560">
    <g mask="url(&quot;#SvgjsMask1076&quot;)" fill="none">
        <path d="M1488 560L0 560 L0 322.48Q18.78 221.26, 120 240.04Q172.16 172.2, 240 224.36Q294.84 159.2, 360 214.04Q422.98 205.01, 432 267.99Q480.74 244.73, 504 293.47Q565.58 283.05, 576 344.63Q626.36 274.99, 696 325.35Q703.62 260.97, 768 268.58Q809.12 237.69, 840 278.81Q884.53 203.34, 960 247.87Q972.69 188.56, 1032 201.25Q1112.97 210.22, 1104 291.2Q1183.8 251, 1224 330.79Q1240.31 227.1, 1344 243.41Q1355.64 183.05, 1416 194.69Q1524.68 231.37, 1488 340.05z" fill="rgba(27, 66, 143, 1)"></path>
        <path d="M1488 560L0 560 L0 412.96Q70.82 411.78, 72 482.61Q90.88 429.5, 144 448.38Q158.92 391.3, 216 406.22Q241.8 312.02, 336 337.83Q405.02 286.85, 456 355.86Q572.92 352.78, 576 469.71Q587.05 408.76, 648 419.81Q683.46 335.27, 768 370.73Q792.69 323.42, 840 348.11Q922.64 310.75, 960 393.39Q1023.93 385.32, 1032 449.25Q1086.06 431.31, 1104 485.37Q1133.09 394.46, 1224 423.55Q1274.27 353.82, 1344 404.09Q1410.71 398.8, 1416 465.52Q1461.39 438.91, 1488 484.3z" fill="rgba(178, 207, 255, 1)"></path>
        <path d="M1488 560L0 560 L0 452.48Q56.52 389, 120 445.52Q174.69 428.21, 192 482.9Q268.1 487, 264 563.09Q344.34 523.43, 384 603.77Q391.47 539.24, 456 546.7Q476.88 447.58, 576 468.45Q619.02 439.47, 648 482.49Q758.05 472.54, 768 582.58Q793.32 535.9, 840 561.22Q841.26 490.48, 912 491.74Q937.13 444.87, 984 470Q1038.96 452.96, 1056 507.92Q1064.54 444.46, 1128 452.99Q1181.64 386.63, 1248 440.27Q1362.49 434.76, 1368 549.26Q1383.19 444.45, 1488 459.65z" fill="rgba(255, 255, 255, 1)"></path>
    </g>
    <defs>
        <mask id="SvgjsMask1076">
            <rect width="1440" height="560" fill="#ffffff"></rect>
        </mask>
    </defs>
</svg>